<?xml version="1.0" encoding="utf-8"?><svg xmlns="http://www.w3.org/2000/svg" xmlns:xlink="http://www.w3.org/1999/xlink"><symbol viewBox="0 0 38 38" id="analysis" xmlns="http://www.w3.org/2000/svg"><path d="M21.488 6.726c-1.818-1.877-4.235-2.91-6.806-2.91-2.571 0-4.989 1.033-6.807 2.91-3.753 3.874-3.753 10.178 0 14.052 1.818 1.877 4.236 2.91 6.807 2.91 2.571 0 4.988-1.033 6.806-2.91 1.818-1.876 2.82-4.372 2.82-7.026s-1.002-5.15-2.82-7.026zm-12.838.8c1.611-1.663 3.753-2.578 6.032-2.578 2.278 0 4.42.915 6.031 2.578a8.838 8.838 0 012.381 4.762l-2.988 3.016a1.894 1.894 0 00-.957-.26c-.676 0-1.273.358-1.624.898l-4.391-1.422v-.04c0-1.112-.876-2.016-1.953-2.016s-1.953.904-1.953 2.016c0 .364.094.705.257 1l-2.304 2.465c-1.748-3.337-1.259-7.602 1.47-10.419zm11.357 9.535c0 .488-.385.885-.858.885-.472 0-.857-.397-.857-.885s.385-.885.857-.885c.473 0 .858.397.858.885zm-7.969-2.58c0 .487-.384.884-.857.884s-.857-.397-.857-.885.384-.885.857-.885.857.397.857.885zm8.675 5.497c-1.611 1.663-3.753 2.58-6.031 2.58-2.279 0-4.42-.917-6.032-2.58-.32-.33-.608-.68-.867-1.047l2.491-2.666c.272.148.58.232.907.232.677 0 1.274-.357 1.624-.898l4.392 1.423-.001.04c0 1.111.876 2.016 1.953 2.016 1.078 0 1.954-.905 1.954-2.017 0-.342-.084-.665-.23-.948l2.338-2.36c0 2.351-.887 4.562-2.498 6.225z"/><path d="M9.828 7.98l.719.854a6.177 6.177 0 016.22-1.227l.36-1.069a7.25 7.25 0 00-7.3 1.442zM18.535 7.224l-.57.966c.29.183.568.392.827.622l.715-.858a7.42 7.42 0 00-.972-.73zM15.993 20.12a6.136 6.136 0 01-3.666-.326l-.408 1.05a7.2 7.2 0 004.3.383l-.226-1.107z"/><path d="M28.413 22.843l-.796.822-1.974-2.179c2.337-3.527 2.9-7.938 1.687-11.891l1.567-1.582c.276.154.59.241.925.241 1.077 0 1.954-.904 1.954-2.016 0-.33-.078-.64-.214-.915l3.364-3.395v1.755h1.096V.017h-3.55V1.15h1.657l-3.319 3.35a1.895 1.895 0 00-.988-.278c-1.077 0-1.953.905-1.953 2.017 0 .356.09.69.247.98l-1.2 1.212a13.666 13.666 0 00-2.846-4.369 13 13 0 00-18.776 0c-4.611 4.76-5.115 12.18-1.51 17.52l-.924.988a1.892 1.892 0 00-.907-.231C.876 22.338 0 23.242 0 24.354s.876 2.017 1.954 2.017c1.077 0 1.953-.905 1.953-2.017 0-.363-.094-.704-.258-1l.806-.862c.263.327.542.645.839.95 2.588 2.673 5.988 4.009 9.388 4.009 2.61 0 5.22-.789 7.462-2.363l1.98 2.184-.824.85 9.586 9.86L38 32.705l-9.587-9.86zm1.41-17.49c.472 0 .857.397.857.885s-.385.885-.858.885c-.472 0-.857-.397-.857-.885s.385-.885.857-.885zM1.952 25.239c-.472 0-.857-.397-.857-.885s.385-.885.858-.885c.472 0 .857.397.857.885s-.385.885-.857.885zm4.116-2.596C1.32 17.74 1.32 9.764 6.07 4.862c2.375-2.451 5.494-3.677 8.613-3.677 3.119 0 6.238 1.226 8.612 3.677 4.75 4.902 4.75 12.879 0 17.78a11.926 11.926 0 01-17.225 0zm16.96 1.766a13.506 13.506 0 001.948-2.002l1.865 2.058-1.943 2.006-1.87-2.062zm9.856 11.975l-8.033-8.264 3.563-3.678 8.033 8.264-3.563 3.678z"/><path d="M28.414 26.085l-1.569 1.62.776.8.793-.82 3.026 3.124.775-.8-3.8-3.924zM33.157 30.975l-.775.804.808.838.776-.804-.81-.838zM7.036 28.03H5.94v1.233h1.096V28.03zM7.036 34.94H5.94v1.234h1.096V34.94zM16.065 30.408h-1.097v1.233h1.097v-1.233zM31.776 20.23H30.68v1.233h1.096V20.23zM33.02 10.41h-1.097v1.234h1.097V10.41zM36.653 15.61h-1.097v1.233h1.097V15.61z"/></symbol><symbol viewBox="0 0 14 13" id="arrow-right" xmlns="http://www.w3.org/2000/svg"><path d="M8.121.293a1 1 0 000 1.414L11.413 5 1 5.007a1 1 0 000 2L11.414 7l-3.293 3.293a1 1 0 101.414 1.414l3.586-3.585a3 3 0 000-4.243L9.535.293a1 1 0 00-1.414 0z"/></symbol><symbol viewBox="0 0 22 22" id="calling-icon" xmlns="http://www.w3.org/2000/svg"><path d="M13.353 1.5a7.97 7.97 0 017.04 7.032M13.353 5.043a4.426 4.426 0 013.5 3.5"/><path clip-rule="evenodd" d="M10.031 11.472c3.99 3.988 4.894-.625 7.434 1.913 2.449 2.448 3.857 2.938.754 6.04-.389.312-2.858 4.07-11.535-4.605-8.677-8.676-4.922-11.148-4.61-11.536 3.11-3.11 3.593-1.695 6.041.753 2.54 2.54-2.072 3.447 1.916 7.435z"/></symbol><symbol viewBox="0 0 40 40" id="crypto" xmlns="http://www.w3.org/2000/svg"><path d="M20 32.377A12.378 12.378 0 1132.377 20 12.391 12.391 0 0120 32.377zm0-23.62A11.242 11.242 0 1031.242 20 11.255 11.255 0 0020 8.758z"/><path d="M20 29.444A9.445 9.445 0 1129.444 20 9.455 9.455 0 0120 29.444zm0-17.753A8.309 8.309 0 1028.31 20 8.319 8.319 0 0020 11.69z"/><path d="M20.945 20.182H18.06a.567.567 0 01-.568-.568v-4.64a.567.567 0 01.568-.567h2.886a2.887 2.887 0 110 5.775zm-2.319-1.135h2.32a1.752 1.752 0 100-3.505h-2.32v3.505z"/><path d="M21.683 24.824h-3.624a.568.568 0 01-.568-.567v-4.643a.568.568 0 01.568-.567h3.624a2.888 2.888 0 010 5.775v.002zm-3.057-1.135h3.057a1.752 1.752 0 100-3.505h-3.057v3.505zM18.059 15.542h-.829a.568.568 0 010-1.135h.829a.567.567 0 110 1.135z"/><path d="M18.524 15.542a.567.567 0 01-.567-.568V13.93a.568.568 0 011.135 0v1.044a.568.568 0 01-.568.568zM20.332 15.542a.567.567 0 01-.568-.568V13.93a.568.568 0 011.135 0v1.044a.568.568 0 01-.567.568zM18.524 25.866a.568.568 0 01-.567-.568v-1.041a.568.568 0 011.135 0V25.3a.568.568 0 01-.568.566zM20.332 25.866a.568.568 0 01-.568-.568v-1.041a.568.568 0 011.135 0V25.3a.568.568 0 01-.567.566z"/><path d="M18.059 24.824h-.829a.567.567 0 110-1.135h.829a.568.568 0 010 1.135zM20 8.758a.567.567 0 01-.568-.568V4.253a.567.567 0 111.136 0V8.19a.567.567 0 01-.568.568z"/><path d="M20 4.821a2.343 2.343 0 110-4.686 2.343 2.343 0 010 4.686zm0-3.55a1.208 1.208 0 100 2.414 1.208 1.208 0 000-2.415zM20 36.314a.568.568 0 01-.568-.567V31.81a.567.567 0 111.136 0v3.937a.567.567 0 01-.568.567z"/><path d="M20 39.865a2.343 2.343 0 110-4.685 2.343 2.343 0 010 4.685zm0-3.55a1.207 1.207 0 100 2.413 1.207 1.207 0 000-2.414zM35.747 20.567H31.81a.568.568 0 010-1.135h3.937a.568.568 0 010 1.136z"/><path d="M37.521 22.343a2.343 2.343 0 110-4.687 2.343 2.343 0 010 4.687zm0-3.55a1.208 1.208 0 100 2.415 1.208 1.208 0 000-2.416zM8.19 20.567H4.253a.568.568 0 010-1.135H8.19a.568.568 0 010 1.136z"/><path d="M2.478 22.343a2.343 2.343 0 110-4.687 2.343 2.343 0 010 4.687zm0-3.55a1.208 1.208 0 100 2.415 1.208 1.208 0 000-2.416zM10.181 33.694H5.65a.568.568 0 010-1.135h4.218l2.27-3.641a.568.568 0 11.966.6l-2.436 3.909a.567.567 0 01-.487.267z"/><path d="M3.875 35.47a2.343 2.343 0 11.001-4.686 2.343 2.343 0 010 4.686zm0-3.551a1.208 1.208 0 10.002 2.417 1.208 1.208 0 00-.002-2.417zM12.622 11.35a.568.568 0 01-.483-.268L9.87 7.441h-4.22a.568.568 0 010-1.135h4.532a.567.567 0 01.482.267l2.436 3.909a.568.568 0 01-.477.868z"/><path d="M3.875 9.216a2.343 2.343 0 11.001-4.685 2.343 2.343 0 010 4.685zm0-3.55a1.208 1.208 0 10.001 2.415 1.208 1.208 0 000-2.415zM34.35 33.694H29.82a.568.568 0 01-.482-.267l-2.439-3.909a.568.568 0 11.965-.6l2.27 3.641h4.22a.568.568 0 010 1.135h-.003z"/><path d="M36.125 35.47a2.343 2.343 0 110-4.687 2.343 2.343 0 010 4.687zm0-3.551a1.208 1.208 0 100 2.416 1.208 1.208 0 000-2.416zM27.378 11.35a.568.568 0 01-.48-.868l2.435-3.909a.568.568 0 01.482-.267h4.534a.567.567 0 110 1.135h-4.217l-2.27 3.641a.568.568 0 01-.483.268z"/><path d="M36.125 9.216a2.343 2.343 0 110-4.686 2.343 2.343 0 010 4.686zm0-3.55a1.208 1.208 0 100 2.415 1.208 1.208 0 000-2.415z"/></symbol><symbol viewBox="0 0 38 37" id="engineer" xmlns="http://www.w3.org/2000/svg"><path d="M23.686 30.722a1.76 1.76 0 001.757-1.758 1.76 1.76 0 00-1.757-1.757c-.763 0-1.407.492-1.65 1.172h-2.45v-3.515h2.45c.243.68.887 1.172 1.65 1.172a1.76 1.76 0 001.757-1.758 1.76 1.76 0 00-1.757-1.757c-.763 0-1.407.492-1.65 1.172h-2.45v-3.515h2.45c.243.68.887 1.172 1.65 1.172a1.76 1.76 0 001.757-1.757 1.76 1.76 0 00-1.757-1.758c-.763 0-1.407.492-1.65 1.172h-2.45v-1.172h-1.172v-2.45a1.755 1.755 0 001.172-1.65 1.76 1.76 0 00-1.758-1.757 1.76 1.76 0 00-1.757 1.757c0 .763.492 1.407 1.172 1.65v2.45h-3.515v-2.45a1.755 1.755 0 001.172-1.65 1.76 1.76 0 00-1.757-1.757 1.76 1.76 0 00-1.758 1.757c0 .763.492 1.407 1.172 1.65v2.45H9.042v-2.45a1.755 1.755 0 001.172-1.65 1.76 1.76 0 00-1.757-1.757 1.76 1.76 0 00-1.758 1.757c0 .763.492 1.407 1.172 1.65v2.45H6.699v1.172H4.25a1.755 1.755 0 00-1.65-1.172 1.76 1.76 0 00-1.757 1.758A1.76 1.76 0 002.6 21.35c.763 0 1.407-.492 1.65-1.172h2.45v3.515H4.25a1.755 1.755 0 00-1.65-1.172A1.76 1.76 0 00.842 24.28 1.76 1.76 0 002.6 26.036c.763 0 1.407-.492 1.65-1.172h2.45v3.515H4.25a1.755 1.755 0 00-1.65-1.172 1.76 1.76 0 00-1.757 1.757A1.76 1.76 0 002.6 30.722c.763 0 1.407-.492 1.65-1.172h2.45v1.172h1.172v2.45a1.755 1.755 0 00-1.172 1.65 1.76 1.76 0 001.758 1.757 1.76 1.76 0 001.757-1.757c0-.763-.492-1.407-1.172-1.65v-2.45h3.515v2.45a1.755 1.755 0 00-1.172 1.65 1.76 1.76 0 001.758 1.757 1.76 1.76 0 001.757-1.757c0-.763-.492-1.407-1.172-1.65v-2.45h3.515v2.45a1.755 1.755 0 00-1.172 1.65 1.76 1.76 0 001.757 1.757 1.76 1.76 0 001.758-1.757c0-.763-.492-1.407-1.172-1.65v-2.45h1.172V29.55h2.45c.243.68.887 1.172 1.65 1.172zm0-2.343a.586.586 0 110 1.172.586.586 0 010-1.172zm0-4.686a.586.586 0 110 1.172.586.586 0 010-1.172zm0-4.686a.586.586 0 110 1.172.586.586 0 010-1.172zM2.599 20.178a.586.586 0 110-1.172.586.586 0 010 1.172zm0 4.686a.586.586 0 110-1.172.586.586 0 010 1.172zm0 4.686a.586.586 0 110-1.172.586.586 0 010 1.172zm15.23-16.4a.586.586 0 11-.002 1.172.586.586 0 01.001-1.173zm-4.686 0a.586.586 0 11-.002 1.172.586.586 0 01.002-1.173zm-4.686 0a.586.586 0 11-.002 1.172.586.586 0 01.002-1.173zm0 22.258a.586.586 0 110-1.172.586.586 0 010 1.172zm4.686 0a.586.586 0 110-1.172.586.586 0 010 1.172zm4.685 0a.586.586 0 110-1.172.586.586 0 010 1.172zm.586-5.858H7.871V19.007h10.543V29.55z"/><path d="M34.519 9.634v.001a9.29 9.29 0 00-1.004-2.416l1.868-1.868-3.314-3.313-1.868 1.868a9.267 9.267 0 00-2.415-1.004V.263H23.1v2.639a9.286 9.286 0 00-2.415 1.004l-1.868-1.869-3.314 3.313 1.868 1.869a9.29 9.29 0 00-1.004 2.415h-2.053v1.172h2.998l.095-.47a8.12 8.12 0 011.196-2.878l.264-.4L17.16 5.35l1.657-1.656 1.709 1.708.398-.264a8.109 8.109 0 012.88-1.196l.468-.095V1.435h2.343v2.412l.47.096a8.11 8.11 0 012.879 1.196l.398.264 1.709-1.709 1.657 1.657L32.02 7.06l.264.398a8.117 8.117 0 011.196 2.88l.095.469h2.412v2.342h-2.412l-.095.47a8.11 8.11 0 01-1.196 2.878l-.264.4 1.708 1.708-1.657 1.657-1.709-1.709-.398.265a8.105 8.105 0 01-2.88 1.196l-.468.095v2.998h1.17v-2.053a9.252 9.252 0 002.416-1.004l1.868 1.868 3.314-3.314-1.868-1.868a9.29 9.29 0 001.004-2.416h2.639V9.634h-2.639z"/><path d="M25.443 16.664v1.171a5.864 5.864 0 005.857-5.857 5.864 5.864 0 00-5.857-5.857 5.864 5.864 0 00-5.857 5.857h1.171a4.691 4.691 0 014.686-4.686 4.691 4.691 0 014.686 4.686 4.691 4.691 0 01-4.686 4.686zM17.243 20.178h-8.2v1.172h8.2v-1.172zM17.243 27.207H16.07v1.172h1.172v-1.172zM14.9 27.207H9.043v1.172H14.9v-1.172zM22.398 35.067l.233 1.148a18.102 18.102 0 0014.163-14.163l-1.149-.233a16.927 16.927 0 01-13.247 13.248zM15.602 1.775L15.369.627A18.102 18.102 0 001.206 14.79l1.148.233A16.93 16.93 0 0115.602 1.775z"/></symbol><symbol viewBox="0 0 38 38" id="graph" xmlns="http://www.w3.org/2000/svg"><path d="M37.243 34.658H4.538l4.127-4.61c.363.193.775.303 1.214.303a2.6 2.6 0 002.314-1.424l4.217 1.069a2.607 2.607 0 002.59 2.39c1.433 0 2.6-1.171 2.6-2.61 0-.794-.355-1.505-.914-1.984l3.439-8.252 2.449 6.27a2.61 2.61 0 00-.96 2.023c0 1.44 1.166 2.61 2.6 2.61a2.608 2.608 0 002.46-3.45l3.004-3.016a.762.762 0 000-1.075.755.755 0 00-1.07 0l-2.834 2.845a2.579 2.579 0 00-1.799-.512l-3.01-7.709 3.024-7.258a2.606 2.606 0 002.737-1.932h4.766c.418 0 .757-.34.757-.76s-.339-.76-.757-.76H30.67a2.604 2.604 0 00-2.457-1.757c-1.433 0-2.6 1.17-2.6 2.61 0 .82.38 1.553.972 2.032l-2.415 5.793-3.527-9.03a2.608 2.608 0 00-1.736-4.551 2.608 2.608 0 00-2.017 4.255l-6.24 9.492a2.578 2.578 0 00-1.749.007l-5.36-7.081V.824c0-.42-.339-.76-.757-.76a.759.759 0 00-.757.76v7.473H.757a.758.758 0 00-.757.76c0 .42.339.76.757.76h1.27v7.637H.757a.758.758 0 00-.757.76c0 .42.339.76.757.76h1.27v7.822H.757a.758.758 0 00-.757.76c0 .42.339.76.757.76h1.27v7.102c0 .42.339.76.757.76h6.522v.998c0 .42.339.76.757.76s.757-.34.757-.76v-.998h7.607v.998c0 .42.34.76.757.76.418 0 .757-.34.757-.76v-.998h7.792v.998c0 .42.339.76.757.76s.757-.34.757-.76v-.998h7.996c.418 0 .757-.34.757-.76s-.339-.76-.757-.76zm-9.03-7.915a1.09 1.09 0 010 2.18 1.09 1.09 0 010-2.18zm0-20.164a1.09 1.09 0 010 2.18 1.09 1.09 0 010-2.18zM9.88 28.831a1.09 1.09 0 010-2.18 1.09 1.09 0 010 2.18zM19 30.866a1.09 1.09 0 010-2.18 1.09 1.09 0 010 2.18zm-.092-27.432a1.09 1.09 0 010 2.18 1.09 1.09 0 010-2.18zM9.786 17.031a1.09 1.09 0 010 2.18 1.09 1.09 0 010-2.18zm-6.245-5.933l4.15 5.481a2.608 2.608 0 002.096 4.152 2.608 2.608 0 002.084-4.168l6.274-9.544a2.582 2.582 0 001.124.09l4.062 10.399-4.033 9.676a2.6 2.6 0 00-2.57 1.325l-4.27-1.083a2.607 2.607 0 00-2.58-2.295 2.608 2.608 0 00-2.289 3.845l-4.048 4.522v-22.4z"/><path d="M36.258 20.22a.755.755 0 00-1.07 0l-.6.601a.762.762 0 00.536 1.298.753.753 0 00.535-.223l.599-.601a.762.762 0 000-1.075z"/></symbol><symbol viewBox="0 0 18 20" id="location-icon" xmlns="http://www.w3.org/2000/svg"><path clip-rule="evenodd" d="M11.5 8.5a2.5 2.5 0 10-5 0 2.5 2.5 0 005 0z"/><path clip-rule="evenodd" d="M9 19C7.8 19 1.5 13.898 1.5 8.563 1.5 4.387 4.857 1 9 1c4.142 0 7.5 3.387 7.5 7.563C16.5 13.898 10.198 19 9 19z"/></symbol><symbol viewBox="0 0 15 15" id="message-icon" xmlns="http://www.w3.org/2000/svg"><path d="M9 14.667a.668.668 0 01-.597-.369l-1.978-3.957a.67.67 0 01.048-.678l3.194-4.33-4.33 3.194a.67.67 0 01-.678.048L.702 6.597a.668.668 0 01.067-1.222L13.436.708a.668.668 0 01.856.856L9.625 14.231a.665.665 0 01-.625.436z"/></symbol><symbol viewBox="0 0 30 30" id="play-icon" xmlns="http://www.w3.org/2000/svg"><path fill-rule="evenodd" clip-rule="evenodd" d="M15 0c8.285 0 15 6.715 15 15s-6.715 15-15 15S0 23.285 0 15 6.715 0 15 0zm0 3a12 12 0 100 24 12 12 0 000-24zm-2.244 4.704l9 6a1.499 1.499 0 01.165 2.481l-9.165 6.111A1.5 1.5 0 0110.5 21V9a1.5 1.5 0 012.256-1.296z"/></symbol><symbol viewBox="0 0 42 37" id="rate-up" xmlns="http://www.w3.org/2000/svg"><path d="M34.825.002c-3.202 0-5.731 2.695-5.731 6.053s2.57 6.01 5.731 6.01c3.163 0 5.772-2.694 5.772-6.052 0-3.358-2.57-6.011-5.772-6.011zm0 10.737c-2.49 0-4.506-2.114-4.506-4.726s2.056-4.684 4.506-4.684c2.49 0 4.507 2.114 4.507 4.726 0 2.611-2.016 4.684-4.507 4.684z"/><path d="M36.644 6.967c-.04-.125-.04-.208-.119-.332-.04-.083-.079-.207-.158-.29-.079-.083-.118-.166-.197-.249-.08-.083-.159-.166-.277-.207-.08-.083-.198-.125-.277-.166-.118-.042-.198-.124-.316-.166a2.642 2.642 0 01-.316-.124c-.04 0-.119-.042-.159-.083-.04-.042-.118-.042-.158-.083-.04-.042-.118-.042-.158-.083l-.118-.124c-.04-.042-.08-.083-.08-.166-.039-.042-.039-.125-.039-.166v-.207c0-.042.04-.125.04-.166.04-.042.04-.125.079-.166l.118-.124a.295.295 0 01.198-.083c.079-.042.118-.042.197-.042h.238c.079 0 .118 0 .197.042.08 0 .159.041.198.041.04 0 .119.042.158.042.08 0 .119.041.158.041l.198.083.04-.249.078-.663v-.166l-.158-.041c-.04 0-.118-.042-.158-.042-.04 0-.079-.041-.158-.041-.04 0-.118-.042-.197-.042-.08 0-.12-.041-.198-.041h-.04V2.116H34.312v.829h-.04c-.118.042-.237.083-.356.166-.118.042-.197.125-.276.207-.08.083-.159.166-.238.29-.079.084-.118.208-.158.332l-.118.373c-.04.125-.04.29-.04.415 0 .124 0 .207.04.332.04.124.04.207.118.331.04.083.119.208.158.29.08.083.119.166.198.25.08.082.158.165.277.207.079.082.197.124.276.165.119.042.238.125.317.166.118.042.237.083.316.125.04 0 .118.041.158.082.04.042.119.042.158.083.04.042.08.083.119.083l.118.125c.04.041.04.083.08.165 0 .042.039.125.039.208v.207a.32.32 0 01-.08.166l-.118.124c-.04.042-.079.083-.158.125-.04.041-.118.041-.158.082-.04 0-.119.042-.198.042h-.513c-.08 0-.159-.042-.198-.042a.544.544 0 01-.237-.082c-.08-.042-.158-.042-.238-.083-.039 0-.079-.042-.118-.042-.04 0-.08-.041-.119-.041l-.237-.125-.04.29-.078.747v.124l.118.042c.158-.042.237 0 .356.041.079.042.198.083.277.083.079.041.197.041.316.083.119.041.198.041.316.041h.08v.83h.948V9.08h.04c.118-.042.237-.083.355-.166.119-.041.198-.124.316-.207.08-.083.158-.166.238-.29.079-.083.118-.208.197-.332l.119-.373c.04-.125.04-.249.04-.415 0-.124 0-.207-.04-.331zM32.058 12.854c-.197-.29-.632-.332-.909-.125l-6.404 5.348-8.261-3.607a.606.606 0 00-.593.083l-8.855 6.633a.683.683 0 00-.158.912.57.57 0 00.514.29.618.618 0 00.356-.124l8.578-6.426 8.3 3.607a.683.683 0 00.633-.083l6.68-5.555c.278-.207.317-.663.12-.954z"/><path d="M41.308 35.572h-2.925V16.377c0-.373-.277-.663-.632-.663H31.94c-.356 0-.633.29-.633.663v19.195h-2.134V23.01c0-.373-.277-.663-.633-.663h-5.85c-.356 0-.633.29-.633.663v12.562h-2.134V22.015c0-.373-.277-.663-.633-.663h-5.81c-.356 0-.633.29-.633.663v13.557h-2.134v-9.66c0-.373-.277-.663-.633-.663H4.23c-.356 0-.633.29-.633.663v9.66H.632c-.355 0-.632.29-.632.663 0 .373.277.663.632.663H41.27c.355 0 .632-.29.632-.663a.587.587 0 00-.593-.663zm-31.9 0H4.862v-8.996h4.546v8.996zm9.25 0h-4.546V22.679h4.546v12.893zm9.21 0h-4.546V23.674h4.546v11.898zm9.25 0h-4.546V17.04h4.546v18.53z"/></symbol><symbol viewBox="0 0 15 15" id="subscribe-icon" xmlns="http://www.w3.org/2000/svg"><path d="M9 14.667a.668.668 0 01-.597-.369l-1.978-3.957a.67.67 0 01.048-.678l3.194-4.33-4.33 3.194a.67.67 0 01-.678.048L.702 6.597a.668.668 0 01.067-1.222L13.436.708a.668.668 0 01.856.856L9.625 14.231a.665.665 0 01-.625.436z"/></symbol><symbol viewBox="0 0 38 38" id="surface" xmlns="http://www.w3.org/2000/svg"><path d="M3.064 33.697H19V32.47H3.064a1.839 1.839 0 01-1.838-1.84V3.665c0-1.016.823-1.839 1.838-1.839h26.968c1.016 0 1.839.823 1.839 1.84V17.76h1.226V3.664A3.068 3.068 0 0030.032.6H3.064A3.068 3.068 0 000 3.664v26.968a3.069 3.069 0 003.064 3.065z"/><path d="M2.452 3.052h1.225v1.225H2.452V3.052zM4.903 3.052H6.13v1.225H4.903V3.052zM7.355 3.052H8.58v1.225H7.355V3.052zM2.452 5.503h28.193v1.226H2.452V5.503zM8.76 8.134L7.203 9.691a3.074 3.074 0 10.867.867L9.627 9l-.867-.867zm-3.244 5.95a1.839 1.839 0 010-3.678c.273.001.542.064.788.184l-1.221 1.22.866.868 1.222-1.22c.12.245.183.514.184.787a1.838 1.838 0 01-1.84 1.839zM10.42 10.406h10.418v1.226H10.42v-1.226zM10.42 12.858h4.29v1.226h-4.29v-1.226zM15.936 12.858h8.58v1.226h-8.58v-1.226zM22.064 10.406h6.13v1.226h-6.13v-1.226zM8.76 15.489l-1.557 1.557a3.074 3.074 0 10.867.866l1.557-1.556-.867-.867zm-3.244 5.95a1.839 1.839 0 010-3.678c.273 0 .542.064.788.184l-1.221 1.221.866.866 1.222-1.22c.12.245.183.514.184.788a1.839 1.839 0 01-1.84 1.838zM10.42 17.76h10.418v1.227H10.42V17.76zM10.42 20.213h4.29v1.225h-4.29v-1.225zM15.936 20.213h4.903v1.225h-4.903v-1.225zM22.064 17.76h2.452v1.227h-2.451V17.76zM8.76 22.844L7.203 24.4a3.074 3.074 0 10.867.866l1.557-1.556-.867-.867zm-3.244 5.95a1.839 1.839 0 010-3.678c.273 0 .542.063.788.184l-1.221 1.22.866.867 1.222-1.22c.12.245.183.514.184.787a1.839 1.839 0 01-1.84 1.84zM10.42 25.116h7.967v1.226h-7.968v-1.226zM10.42 27.567h4.29v1.226h-4.29v-1.226zM15.936 27.567h2.451v1.226h-2.451v-1.226zM28.806 37.374A9.193 9.193 0 0038 28.18a9.193 9.193 0 10-18.387 0 9.204 9.204 0 009.194 9.194zm0-17.161a7.968 7.968 0 11-7.968 7.967 7.977 7.977 0 017.968-7.967z"/><path d="M25.068 28.52l-1.097.547 1.226 2.452a.612.612 0 00.979.16l7.354-7.356-.866-.866-6.754 6.753-.842-1.69z"/></symbol><symbol viewBox="0 0 10 18" id="white-facebook-icon" xmlns="http://www.w3.org/2000/svg"><path d="M2.966 17.574V9.622H.863V6.758h2.103V4.313C2.966 2.39 4.208.626 7.07.626c1.159 0 2.016.112 2.016.112L9.018 3.41s-.874-.008-1.827-.008c-1.032 0-1.198.475-1.198 1.265v2.09H9.1l-.135 2.864H5.993v7.952H2.966z" fill-opacity=".8"/></symbol><symbol viewBox="0 0 17 17" id="white-instagram-icon" xmlns="http://www.w3.org/2000/svg"><path d="M8.074 5.84A2.69 2.69 0 005.39 8.523a2.69 2.69 0 002.684 2.684 2.69 2.69 0 002.685-2.684 2.69 2.69 0 00-2.685-2.685zm8.052 2.684c0-1.112.01-2.213-.053-3.323-.062-1.289-.356-2.433-1.299-3.375C13.83.88 12.688.589 11.4.526 10.288.465 9.186.475 8.076.475c-1.111 0-2.213-.01-3.322.053-1.29.062-2.433.356-3.376 1.299C.434 2.77.142 3.912.08 5.2.017 6.313.027 7.414.027 8.524c0 1.11-.01 2.213.052 3.323.063 1.289.357 2.433 1.3 3.375.944.944 2.086 1.237 3.375 1.299 1.111.062 2.213.052 3.322.052 1.112 0 2.214.01 3.323-.052 1.29-.063 2.433-.357 3.376-1.299.944-.944 1.236-2.086 1.298-3.375.065-1.11.053-2.211.053-3.323zm-8.052 4.13a4.125 4.125 0 01-4.13-4.13 4.125 4.125 0 014.13-4.13 4.125 4.125 0 014.13 4.13 4.125 4.125 0 01-4.13 4.13zm4.3-7.465a.963.963 0 110-1.93.963.963 0 110 1.93z" fill-opacity=".8"/></symbol><symbol viewBox="0 0 14 18" id="white-pinterest-icon" xmlns="http://www.w3.org/2000/svg"><path d="M.921 6.705c0-.732.128-1.424.38-2.07.242-.628.6-1.204 1.056-1.698a7.17 7.17 0 011.549-1.251A7.076 7.076 0 015.79.89 8.071 8.071 0 017.85.626c1.073 0 2.07.227 2.997.68a5.67 5.67 0 012.252 1.971c.578.862.865 1.837.865 2.924 0 .651-.064 1.289-.195 1.912a7.803 7.803 0 01-.608 1.802 6.223 6.223 0 01-1.02 1.523 4.447 4.447 0 01-1.476 1.049 4.67 4.67 0 01-1.926.393c-.46 0-.92-.109-1.374-.326-.454-.217-.78-.514-.976-.896-.069.265-.163.647-.288 1.147-.12.5-.201.822-.237.968a21.03 21.03 0 01-.21.722 4.88 4.88 0 01-.264.724l-.324.635c-.14.272-.297.536-.469.79-.17.246-.381.54-.633.88l-.14.05-.093-.102c-.101-1.067-.153-1.706-.153-1.917 0-.624.074-1.325.221-2.103.144-.777.372-1.753.678-2.928.307-1.173.482-1.863.529-2.068-.216-.44-.325-1.014-.325-1.72 0-.565.176-1.093.53-1.59.353-.496.8-.743 1.343-.743.415 0 .737.137.968.413.232.275.345.622.345 1.045 0 .448-.149 1.097-.448 1.945-.3.85-.449 1.484-.449 1.905 0 .426.153.783.458 1.063.301.28.7.431 1.11.423.373 0 .719-.085 1.04-.255.316-.166.59-.402.8-.69.457-.628.782-1.34.957-2.096.09-.398.16-.775.204-1.13.046-.357.066-.694.066-1.015 0-1.174-.373-2.09-1.114-2.745-.745-.655-1.715-.981-2.909-.981-1.357 0-2.491.439-3.4 1.32-.91.877-1.368 1.993-1.368 3.346 0 .299.045.587.131.866.084.278.175.499.274.663.098.16.19.318.274.463.085.145.13.249.13.31 0 .191-.05.439-.151.745-.105.306-.228.459-.377.459-.014 0-.073-.01-.174-.033a2.08 2.08 0 01-.922-.57 2.986 2.986 0 01-.621-.962 6.58 6.58 0 01-.331-1.1A4.6 4.6 0 01.92 6.704z" fill-opacity=".8"/></symbol><symbol viewBox="0 0 18 15" id="white-twitter-icon" xmlns="http://www.w3.org/2000/svg"><path d="M17.774 1.957a6.964 6.964 0 01-2 .537A3.464 3.464 0 0017.3.58a6.856 6.856 0 01-2.203.84A3.465 3.465 0 0012.56.32a3.472 3.472 0 00-3.473 3.475c0 .269.033.538.086.796A9.87 9.87 0 012.012.957a3.449 3.449 0 00-.473 1.753c0 1.206.613 2.27 1.548 2.894a3.503 3.503 0 01-1.57-.441v.042A3.474 3.474 0 004.3 8.615a3.678 3.678 0 01-.915.118 4.62 4.62 0 01-.655-.053 3.48 3.48 0 003.246 2.41 6.96 6.96 0 01-4.312 1.484c-.29 0-.56-.01-.839-.043A9.834 9.834 0 006.16 14.09c6.388 0 9.883-5.291 9.883-9.884 0-.15 0-.301-.01-.452a7.48 7.48 0 001.74-1.796z" fill-opacity=".8"/></symbol></svg>