<?xml version="1.0" encoding="utf-8"?><svg xmlns="http://www.w3.org/2000/svg" xmlns:xlink="http://www.w3.org/1999/xlink"><symbol fill="none" viewBox="0 0 18 18" id="facebook-icon" xmlns="http://www.w3.org/2000/svg"><g clip-path="url(#aclip0_1_317)"><path d="M18 9a9 9 0 00-9-9 9.002 9.002 0 00-1.406 17.891v-6.29H5.309V9h2.285V7.017c0-2.255 1.343-3.501 3.4-3.501.984 0 2.014.175 2.014.175v2.215h-1.136c-1.117 0-1.466.695-1.466 1.407V9h2.496l-.399 2.602h-2.097v6.289A9.001 9.001 0 0018 9z" fill="#1877F2"/><path d="M12.503 11.602l.4-2.602h-2.497V7.312c0-.711.348-1.406 1.467-1.406h1.135V3.692s-1.03-.176-2.014-.176c-2.057 0-3.4 1.246-3.4 3.501V9H5.309v2.602h2.285v6.289a9.062 9.062 0 002.813 0v-6.29h2.096z" fill="#fff"/></g><defs><clipPath id="aclip0_1_317"><path fill="#fff" d="M0 0h18v18H0z"/></clipPath></defs></symbol><symbol fill="none" viewBox="0 0 18 18" id="linkedin-icon" xmlns="http://www.w3.org/2000/svg"><g clip-path="url(#bclip0_1_335)"><path d="M0 9a9 9 0 1118 0A9 9 0 110 9z" fill="#0077B5"/><path fill-rule="evenodd" clip-rule="evenodd" d="M6.494 5.559c0 .588-.442 1.059-1.154 1.059h-.013c-.684 0-1.127-.471-1.127-1.06 0-.6.456-1.058 1.154-1.058.697 0 1.127.457 1.14 1.059zM6.36 7.454v6.128H4.32V7.454h2.04zm7.356 6.128V10.07c0-1.883-1.007-2.759-2.349-2.759-1.082 0-1.567.595-1.838 1.012v-.868h-2.04c.027.576 0 6.128 0 6.128h2.04V10.16c0-.183.013-.366.067-.497.147-.366.483-.745 1.046-.745.74 0 1.034.562 1.034 1.386v3.278h2.04z" fill="#fff"/></g><defs><clipPath id="bclip0_1_335"><path fill="#fff" d="M0 0h18v18H0z"/></clipPath></defs></symbol><symbol fill="none" viewBox="0 0 18 18" id="skype-icon" xmlns="http://www.w3.org/2000/svg"><path d="M5.22 10.44A5.22 5.22 0 105.22 0a5.22 5.22 0 000 10.44z" fill="#28A8EA"/><path d="M12.78 18a5.22 5.22 0 100-10.44 5.22 5.22 0 000 10.44z" fill="#28A8EA"/><path d="M9 17.64A8.64 8.64 0 0017.64 9 8.64 8.64 0 009 .36 8.64 8.64 0 00.36 9 8.64 8.64 0 009 17.64z" fill="#28A8EA"/><path fill-rule="evenodd" clip-rule="evenodd" d="M6.76 8.836a2.625 2.625 0 01-.824-.87 2.402 2.402 0 01-.282-1.2 2.158 2.158 0 01.508-1.454 3.06 3.06 0 011.326-.886 5.118 5.118 0 011.735-.291c.387-.004.773.026 1.155.088.273.042.54.112.8.207.238.08.453.218.627.4a.81.81 0 01.194.538.78.78 0 01-.204.561.678.678 0 01-.512.213.922.922 0 01-.38-.085 6.916 6.916 0 00-.906-.331 3.287 3.287 0 00-.873-.109 1.992 1.992 0 00-1.092.28.909.909 0 00-.436.816.821.821 0 00.226.574c.175.182.382.33.61.437.256.127.638.295 1.145.505.056.018.111.04.164.066.496.195.97.44 1.418.728.353.23.651.536.872.896.218.377.327.807.315 1.243a2.5 2.5 0 01-.436 1.5 2.593 2.593 0 01-1.22.905c-.589.21-1.21.311-1.834.299a5.782 5.782 0 01-2.5-.473 1.36 1.36 0 01-.515-.4.9.9 0 01-.168-.545.712.712 0 01.22-.555.812.812 0 01.568-.2c.231.004.458.062.662.171.254.127.454.222.6.286a3.032 3.032 0 001.185.232c.396.029.79-.076 1.119-.298a.987.987 0 00.377-.817.868.868 0 00-.236-.597 2.512 2.512 0 00-.695-.505 16.517 16.517 0 00-1.293-.59 8.007 8.007 0 01-1.42-.739z" fill="#fff"/><path opacity=".1" fill-rule="evenodd" clip-rule="evenodd" d="M6.85.263a5.095 5.095 0 00-.698-.18 9.387 9.387 0 00-6.07 6.07c.044.237.104.47.18.698.064.207.145.408.242.601A8.621 8.621 0 017.452.504 3.956 3.956 0 006.85.263z" fill="#000"/><path opacity=".1" fill-rule="evenodd" clip-rule="evenodd" d="M6.851.263A9.007 9.007 0 00.262 6.85c.064.207.145.408.241.601A8.621 8.621 0 017.452.504a3.956 3.956 0 00-.6-.241zM17.738 11.15a3.963 3.963 0 00-.242-.602 8.621 8.621 0 01-6.948 6.948c.194.097.395.177.601.241.229.077.462.137.698.18a9.386 9.386 0 006.07-6.07 5.097 5.097 0 00-.18-.698z" fill="#000"/><path opacity=".1" fill-rule="evenodd" clip-rule="evenodd" d="M17.496 10.548a8.621 8.621 0 01-6.948 6.948c.194.097.395.177.601.241a9.007 9.007 0 006.589-6.588 3.951 3.951 0 00-.242-.601z" fill="#000"/></symbol><symbol fill="none" viewBox="0 0 18 18" id="twitter-icon" xmlns="http://www.w3.org/2000/svg"><g clip-path="url(#dclip0_1_321)"><path d="M0 9a9 9 0 1118 0A9 9 0 110 9z" fill="#3FA4F1"/><path d="M8.73 7.315l.02.312-.316-.039c-1.145-.146-2.146-.642-2.996-1.474l-.416-.413-.107.305c-.226.68-.081 1.398.39 1.881.253.267.196.305-.238.147-.152-.051-.284-.09-.297-.07-.043.044.108.622.227.851.164.318.498.63.863.814l.308.146-.365.006c-.352 0-.365.006-.327.14.126.413.623.852 1.177 1.043l.39.133-.34.203a3.544 3.544 0 01-1.687.47c-.283.007-.516.032-.516.052 0 .063.768.419 1.215.559 1.341.413 2.934.235 4.13-.47.85-.503 1.7-1.5 2.096-2.467.214-.515.428-1.455.428-1.906 0-.293.019-.33.371-.68.208-.204.403-.426.441-.49.063-.12.057-.12-.264-.013-.535.191-.611.166-.346-.12.195-.204.428-.572.428-.68 0-.019-.095.013-.202.07a3.51 3.51 0 01-.554.216l-.34.108-.308-.21a2.543 2.543 0 00-.535-.28c-.322-.089-.812-.076-1.102.026-.787.286-1.284 1.023-1.228 1.83z" fill="#fff"/></g><defs><clipPath id="dclip0_1_321"><path fill="#fff" d="M0 0h18v18H0z"/></clipPath></defs></symbol></svg>